<svg width="500" height="300" viewBox="0 0 500 300" fill="none" xmlns="http://www.w3.org/2000/svg">
<path fill-rule="evenodd" clip-rule="evenodd" d="M125.824 193.648C132.639 192.711 146.711 192.878 161.612 163.645C179.074 129.387 185.659 119.928 195.461 103.616C210.445 78.6784 227.354 67.3756 236.869 62.7824C281.336 41.3166 289.494 38.0123 335.065 20.5483C343.186 17.4358 354.119 28.0013 349.15 41.4442C346.642 48.2289 347.842 45.0986 344.182 52.6678C337.734 66.0039 339.623 64.2048 326.68 67.0166C317.208 69.0743 315.583 69.2288 301.221 71.7001C286.86 74.1713 283.204 75.0828 277.455 83.1729C242.537 132.309 241.524 132.626 205.724 182.602C198.858 192.187 209.239 214.319 236.78 202.595C259.849 192.775 294.888 178.307 341.896 159.19C352.392 153.255 358.618 147.08 360.575 140.665C368.817 113.647 371.565 102.422 376.929 83.8886C381.513 60.0019 439.097 37.3237 469.635 53.0083C497.355 67.246 496.228 112.945 473.114 124.81C450 136.675 285.924 212.531 283.77 213.068C191.33 236.116 142.507 249.969 30.9952 278.311C21.0835 280.83 7.91196 283.559 9.07158 266.026C11.0487 236.132 15.6579 206.561 21.5345 169.17C23.8938 154.159 75.2081 137.482 88.9016 159.03C100.457 177.214 105.979 196.377 125.824 193.648Z" stroke="#FF8A00" stroke-width="12"></path>
<path fill-rule="evenodd" clip-rule="evenodd" d="M452.053 180.504C412.531 190.358 362.735 202.773 302.664 217.751C288.868 218.748 274.11 219.592 258.387 220.284C258.952 220.143 265.314 218.567 265.976 218.392C282.861 213.937 314.707 206.242 344.574 198.795C356.121 195.916 372.12 191.927 384.046 188.954C438.708 175.325 451.203 152.942 475.825 124.689C477.568 124.254 477.32 125.46 476.476 127.3C474.751 131.058 466.649 143.248 452.168 163.87C452.188 167.933 452.15 173.478 452.053 180.504Z" stroke="#FF8A00" stroke-width="6" stroke-linecap="round" stroke-linejoin="round"></path>
</svg>